REM DIRINDEX 1\2\6,1\2\7,1\2\8,1\2\9,1\3\10,1\3\11,1\4\12,1\4\13,1\4\14,1\5\15,1\5\16,1\5\17
REM DIRNAME cjc020,folder01,folder02,folder03,folder04,folder05,folder06,folder07,folder08,folder09,folder10,folder11,folder12,folder13,folder14,folder15,folder16
TITLE ""
FILE "1900_2_sec14_1350_1366.mp3" MP3
  TRACK 01 AUDIO
    TITLE "0:"
    INDEX 01 00:00:00
  TRACK 02 AUDIO
    TITLE "13:cjc020_4841"
    INDEX 01 00:00:17
  TRACK 03 AUDIO
    TITLE "0:"
    INDEX 01 00:01:48
  TRACK 04 AUDIO
    TITLE "14:cjc020_4842"
    INDEX 01 00:01:50
  TRACK 05 AUDIO
    TITLE "0:"
    INDEX 01 00:04:31
  TRACK 06 AUDIO
    TITLE "13:cjc020_4843"
    INDEX 01 00:05:12
  TRACK 07 AUDIO
    TITLE "0:"
    INDEX 01 00:06:37
  TRACK 08 AUDIO
    TITLE "14:cjc020_4844"
    INDEX 01 00:06:41
  TRACK 09 AUDIO
    TITLE "0:"
    INDEX 01 00:08:60
  TRACK 10 AUDIO
    TITLE "13:cjc020_4845"
    INDEX 01 00:09:42
  TRACK 11 AUDIO
    TITLE "0:"
    INDEX 01 00:10:66
  TRACK 12 AUDIO
    TITLE "14:cjc020_4846"
    INDEX 01 00:10:68
  TRACK 13 AUDIO
    TITLE "0:"
    INDEX 01 00:13:12
  TRACK 14 AUDIO
    TITLE "13:cjc020_4847"
    INDEX 01 00:13:65
  TRACK 15 AUDIO
    TITLE "0:"
    INDEX 01 00:15:01
  TRACK 16 AUDIO
    TITLE "14:cjc020_4848"
    INDEX 01 00:15:05
  TRACK 17 AUDIO
    TITLE "0:"
    INDEX 01 00:16:14
  TRACK 18 AUDIO
    TITLE "13:cjc020_4849"
    INDEX 01 00:16:69
  TRACK 19 AUDIO
    TITLE "0:"
    INDEX 01 00:18:07
  TRACK 20 AUDIO
    TITLE "14:cjc020_4850"
    INDEX 01 00:18:09
  TRACK 21 AUDIO
    TITLE "0:"
    INDEX 01 00:19:24
  TRACK 22 AUDIO
    TITLE "13:cjc020_4851"
    INDEX 01 00:20:02
  TRACK 23 AUDIO
    TITLE "0:"
    INDEX 01 00:21:31
  TRACK 24 AUDIO
    TITLE "14:cjc020_4852"
    INDEX 01 00:21:37
  TRACK 25 AUDIO
    TITLE "0:"
    INDEX 01 00:22:66
  TRACK 26 AUDIO
    TITLE "13:cjc020_4853"
    INDEX 01 00:23:48
  TRACK 27 AUDIO
    TITLE "0:"
    INDEX 01 00:24:69
  TRACK 28 AUDIO
    TITLE "14:cjc020_4854"
    INDEX 01 00:24:72
  TRACK 29 AUDIO
    TITLE "0:"
    INDEX 01 00:27:04
  TRACK 30 AUDIO
    TITLE "13:cjc020_4855"
    INDEX 01 00:27:61
  TRACK 31 AUDIO
    TITLE "0:"
    INDEX 01 00:29:07
  TRACK 32 AUDIO
    TITLE "14:cjc020_4856"
    INDEX 01 00:29:09
  TRACK 33 AUDIO
    TITLE "0:"
    INDEX 01 00:33:07
  TRACK 34 AUDIO
    TITLE "13:cjc020_4857"
    INDEX 01 00:33:62
  TRACK 35 AUDIO
    TITLE "0:"
    INDEX 01 00:35:12
  TRACK 36 AUDIO
    TITLE "14:cjc020_4858"
    INDEX 01 00:35:17
  TRACK 37 AUDIO
    TITLE "0:"
    INDEX 01 00:38:20
  TRACK 38 AUDIO
    TITLE "13:cjc020_4859"
    INDEX 01 00:39:00
  TRACK 39 AUDIO
    TITLE "0:"
    INDEX 01 00:40:05
  TRACK 40 AUDIO
    TITLE "14:cjc020_4860"
    INDEX 01 00:40:11
  TRACK 41 AUDIO
    TITLE "0:"
    INDEX 01 00:42:25
  TRACK 42 AUDIO
    TITLE "13:cjc020_4861"
    INDEX 01 00:43:05
  TRACK 43 AUDIO
    TITLE "0:"
    INDEX 01 00:44:30
  TRACK 44 AUDIO
    TITLE "14:cjc020_4862"
    INDEX 01 00:44:36
  TRACK 45 AUDIO
    TITLE "0:"
    INDEX 01 00:46:68
  TRACK 46 AUDIO
    TITLE "13:cjc020_4863"
    INDEX 01 00:47:44
  TRACK 47 AUDIO
    TITLE "0:"
    INDEX 01 00:48:69
  TRACK 48 AUDIO
    TITLE "14:cjc020_4864"
    INDEX 01 00:48:73
  TRACK 49 AUDIO
    TITLE "0:"
    INDEX 01 00:51:58
  TRACK 50 AUDIO
    TITLE "13:cjc020_4865"
    INDEX 01 00:52:41
  TRACK 51 AUDIO
    TITLE "0:"
    INDEX 01 00:53:51
  TRACK 52 AUDIO
    TITLE "14:cjc020_4866"
    INDEX 01 00:53:57
  TRACK 53 AUDIO
    TITLE "0:"
    INDEX 01 00:55:63
  TRACK 54 AUDIO
    TITLE "13:cjc020_4867"
    INDEX 01 00:56:45
  TRACK 55 AUDIO
    TITLE "0:"
    INDEX 01 00:58:07
  TRACK 56 AUDIO
    TITLE "14:cjc020_4868"
    INDEX 01 00:58:13
  TRACK 57 AUDIO
    TITLE "0:"
    INDEX 01 01:00:70
  TRACK 58 AUDIO
    TITLE "13:cjc020_4869"
    INDEX 01 01:01:52
  TRACK 59 AUDIO
    TITLE "0:"
    INDEX 01 01:02:63
  TRACK 60 AUDIO
    TITLE "14:cjc020_4870"
    INDEX 01 01:02:65
  TRACK 61 AUDIO
    TITLE "0:"
    INDEX 01 01:04:11
  TRACK 62 AUDIO
    TITLE "13:cjc020_4871"
    INDEX 01 01:04:66
  TRACK 63 AUDIO
    TITLE "0:"
    INDEX 01 01:05:71
  TRACK 64 AUDIO
    TITLE "14:cjc020_4872"
    INDEX 01 01:05:73
  TRACK 65 AUDIO
    TITLE "0:"
    INDEX 01 01:07:21
  TRACK 66 AUDIO
    TITLE "13:cjc020_4873"
    INDEX 01 01:07:74
  TRACK 67 AUDIO
    TITLE "0:"
    INDEX 01 01:09:24
  TRACK 68 AUDIO
    TITLE "14:cjc020_4874"
    INDEX 01 01:09:26
  TRACK 69 AUDIO
    TITLE "0:"
    INDEX 01 01:11:39
